<svg xmlns="http://www.w3.org/2000/svg" xmlns:xlink="http://www.w3.org/1999/xlink" width="62" height="62" viewBox="0 0 62 62"><defs><filter id="a" x="0" y="0" width="62" height="62" filterUnits="userSpaceOnUse"><feOffset dy="6" input="SourceAlpha"/><feGaussianBlur stdDeviation="5" result="b"/><feFlood flood-opacity="0.161"/><feComposite operator="in" in2="b"/><feComposite in="SourceGraphic"/></filter></defs><g transform="translate(14.958 9)"><g transform="matrix(1, 0, 0, 1, -14.96, -9)" filter="url(#a)"><circle cx="16" cy="16" r="16" transform="translate(15 9)" fill="#e33323"/></g><g transform="translate(6.29 25.945) rotate(-90)"><path d="M0,0H18.869V18.869H0Z" fill="none"/><path d="M5.183.786V9.568L1.346,5.731a.792.792,0,0,0-1.116,0,.783.783,0,0,0,0,1.109l5.181,5.181a.783.783,0,0,0,1.109,0L11.7,6.84a.784.784,0,1,0-1.109-1.109L6.755,9.568V.786a.786.786,0,0,0-1.572,0Z" transform="translate(3.465 3.145)" fill="#fff"/></g></g></svg>